<?xml version="1.0" encoding="UTF-8"?>
<!DOCTYPE svg PUBLIC "-//W3C//DTD SVG 1.1//EN" "http://www.w3.org/Graphics/SVG/1.1/DTD/svg11.dtd">
<!-- Creator: CorelDRAW -->
<svg xmlns="http://www.w3.org/2000/svg" xml:space="preserve" width="4.7775mm" height="1.0264mm" style="shape-rendering:geometricPrecision; text-rendering:geometricPrecision; image-rendering:optimizeQuality; fill-rule:evenodd; clip-rule:evenodd"
viewBox="0 0 1.52273 0.327144"
 xmlns:xlink="http://www.w3.org/1999/xlink">
 <defs>
  <style type="text/css">
   <![CDATA[
    .fil2 {fill:#0092DF}
    .fil0 {fill:#DA251C}
    .fil1 {fill:#FFF500}
    .fil3 {fill:#2A166F;fill-rule:nonzero}
   ]]>
  </style>
 </defs>
 <g id="Layer_x0020_1">
  <metadata id="CorelCorpID_0Corel-Layer"/>
  <g id="_141924248">
   <path id="_141929240" class="fil0" d="M0.0907423 0.15758l0 0.084782c0.0402874,0 0.0786943,-0.0303749 0.0786943,-0.0727978l0 -0.084782c-0.0432835,0 -0.0786943,0.0327654 -0.0786943,0.0727978zm-0.0120161 0l0 0.084782c-0.0402874,0 -0.0786943,-0.0303749 -0.0786943,-0.0727978l0 -0.084782c0.0432835,0 0.0786943,0.0327654 0.0786943,0.0727978z"/>
   <path id="_141926576" class="fil1" d="M0.441568 0.15758c0,0.0201118 0,-0.0081276 0,0.0119842 0,0.0424229 -0.0384069,0.0727978 -0.0786943,0.0727978 0,-0.0686543 0,-0.0889255 0,-0.15758 0.0432835,0 0.0786943,0.0327654 0.0786943,0.0727978zm-0.169405 0l0 0.169564c0.0402874,0 0.0786943,-0.0303749 0.0786943,-0.0727978l0 -0.169564c-0.0432835,0 -0.0786943,0.0327654 -0.0786943,0.0727978z"/>
   <path id="_141920096" class="fil2" d="M0.181453 0c0,0 0,0.148305 0,0.169564 0,0.0400324 0.0354108,0.0727978 0.0786943,0.0727978 0,0 0,-0.148305 0,-0.169564 0,-0.0400324 -0.0354108,-0.0727978 -0.0786943,-0.0727978z"/>
  </g>
  <path class="fil3" d="M0.574255 0.050168l-0.00953001 0 0 0.0380244c0,0.0124942 -0.00490843,0.0179126 -0.0127811,0.0179126 -0.00723516,0 -0.0123986,-0.00535466 -0.0123986,-0.0179126l0 -0.0380244 -0.00949814 0 0 0.0374507c0,0.0187413 0.00870131,0.0262952 0.021578,0.0262952 0.0133548,0 0.0226298,-0.00790449 0.0226298,-0.0265502l0 -0.0371957zm0.0497855 0.0351877c0,-0.0139604 -0.00787262,-0.0185501 -0.0149165,-0.0185501 -0.00682081,0 -0.0115699,0.00385663 -0.0137054,0.00771325l-0.000254984 0 -0.000478094 -0.00672519 -0.00828697 0c0.000159365,0.00385663 0.000318729,0.00771325 0.000318729,0.0127173l0 0.0324785 0.00953001 0 0 -0.0272195c0,-0.00723516 0.00500405,-0.0110918 0.0096575,-0.0110918 0.00647021,0 0.0086057,0.0054184 0.0086057,0.0118249l0 0.0264864 0.00953001 0 0 -0.0276338zm0.0223111 -0.0300243c0,-0.00318729 -0.00223111,-0.00557777 -0.00551402,-0.00557777 -0.00325104,0 -0.00557777,0.00239047 -0.00557777,0.00557777 0,0.00302793 0.00223111,0.00551402 0.00551402,0.00551402 0.00344228,0 0.00557777,-0.00248609 0.00557777,-0.00551402zm-0.000828697 0.0124623l-0.00949814 0 0 0.0451958 0.00949814 0 0 -0.0451958zm0.0141197 0l-0.00640646 0 0 0.00713954 0.00640646 0 0 0.0233629c0,0.00592837 0.00105181,0.00968938 0.00334666,0.0121436 0.00197612,0.00223111 0.00516342,0.00347415 0.0089563,0.00347415 0.00318729,0 0.00573713,-0.000414348 0.00736265,-0.00108368l-0.000318729 -0.00729891c-0.00114743,0.000318729 -0.00229485,0.000573713 -0.00417536,0.000573713 -0.00401599,0 -0.00573713,-0.0027092 -0.00573713,-0.00828697l0 -0.0228848 0.0107412 0 0 -0.00713954 -0.0107412 0 0 -0.0111555 -0.00943439 0.00296418 0 0.00819135zm0.0809573 0.0371639l-0.0241916 0 0 -0.0547896 -0.00953001 0 0 0.0628216 0.0337216 0 0 -0.00803198zm0.0396181 -0.0197612c0,-0.00959376 -0.00369726,-0.0183907 -0.0169883,-0.0183907 -0.00608773,0 -0.0114105,0.00172114 -0.0145978,0.00379288l0.00197612 0.00631084c0.00286857,-0.0018805 0.0069483,-0.00312355 0.0109962,-0.00312355 0.00908379,0 0.00908379,0.00672519 0.00908379,0.0101037 -0.0154903,0 -0.0252434,0.00557777 -0.0252434,0.016797 0,0.00698018 0.00481282,0.0132273 0.0132591,0.0132273 0.00567338,0 0.0101037,-0.00264545 0.0126536,-0.00618335l0.000223111 0 0.000669332 0.00525904 0.0086057 0c-0.000573713,-0.00293231 -0.000637459,-0.00688456 -0.000637459,-0.0107412l0 -0.017052zm-0.00927503 0.0125261c0,0.00525904 -0.00427098,0.00921128 -0.00943439,0.00921128 -0.0035379,0 -0.00666145,-0.00223111 -0.00666145,-0.00723516 0,-0.00803198 0.00863757,-0.00943439 0.0160958,-0.00943439l0 0.00745827zm0.0469807 -0.0299287l-0.00729891 0.0254346c-0.000828697,0.00302793 -0.00172114,0.00640646 -0.0023586,0.00902004l-0.000254984 0c-0.000669332,-0.00261358 -0.00156177,-0.00605586 -0.00245422,-0.00902004l-0.00822322 -0.0254346 -0.0104225 0 0.0155221 0.0416898c0.000414348,0.000892443 0.000478094,0.00146616 0.000478094,0.00194425 0,0.00124304 -0.00350602,0.0104225 -0.0133548,0.0139604l0.00245422 0.00803198c0.00223111,-0.000478094 0.00640646,-0.00203987 0.0104862,-0.00580088 0.0054184,-0.00525904 0.00921128,-0.0136416 0.0145341,-0.0284944l0.0109005 -0.0313311 -0.0100081 0zm0.048415 0.0174026c0,-0.00959376 -0.00369726,-0.0183907 -0.0169883,-0.0183907 -0.00608773,0 -0.0114105,0.00172114 -0.0145978,0.00379288l0.00197612 0.00631084c0.00286857,-0.0018805 0.0069483,-0.00312355 0.0109643,-0.00312355 0.00911566,0 0.00911566,0.00672519 0.00911566,0.0101037 -0.0154903,0 -0.0252434,0.00557777 -0.0252434,0.016797 0,0.00698018 0.00481282,0.0132273 0.0132591,0.0132273 0.00567338,0 0.0101037,-0.00264545 0.0126536,-0.00618335l0.000223111 0 0.000669332 0.00525904 0.0086057 0c-0.000573713,-0.00293231 -0.000637459,-0.00688456 -0.000637459,-0.0107412l0 -0.017052zm-0.00927503 0.0125261c0,0.00525904 -0.00427098,0.00921128 -0.00943439,0.00921128 -0.0035379,0 -0.00666145,-0.00223111 -0.00666145,-0.00723516 0,-0.00803198 0.00863757,-0.00943439 0.0160958,-0.00943439l0 0.00745827zm0.0585506 -0.0123667c0,-0.0139604 -0.00787262,-0.0185501 -0.0149165,-0.0185501 -0.00682081,0 -0.0115699,0.00385663 -0.0137054,0.00771325l-0.000254984 0 -0.000478094 -0.00672519 -0.00828697 0c0.000159365,0.00385663 0.000318729,0.00771325 0.000318729,0.0127173l0 0.0324785 0.00953001 0 0 -0.0272195c0,-0.00723516 0.00500405,-0.0110918 0.0096575,-0.0110918 0.00650208,0 0.00863757,0.0054184 0.00863757,0.0118249l0 0.0264864 0.00949814 0 0 -0.0276338zm0.0436341 -0.000159365c0,-0.00959376 -0.00369726,-0.0183907 -0.0169883,-0.0183907 -0.00605586,0 -0.0113786,0.00172114 -0.0145978,0.00379288l0.00197612 0.00631084c0.00286857,-0.0018805 0.00698018,-0.00312355 0.0109962,-0.00312355 0.00911566,0 0.00911566,0.00672519 0.00911566,0.0101037 -0.0155221,0 -0.0252752,0.00557777 -0.0252752,0.016797 0,0.00698018 0.00484469,0.0132273 0.013291,0.0132273 0.00567338,0 0.0100719,-0.00264545 0.0126217,-0.00618335l0.000254984 0 0.000637459 0.00525904 0.00863757 0c-0.000573713,-0.00293231 -0.000669332,-0.00688456 -0.000669332,-0.0107412l0 -0.017052zm-0.00927503 0.0125261c0,0.00525904 -0.0042391,0.00921128 -0.00943439,0.00921128 -0.00350602,0 -0.00662957,-0.00223111 -0.00662957,-0.00723516 0,-0.00803198 0.0086057,-0.00943439 0.016064,-0.00943439l0 0.00745827zm0.0585825 -0.0123667c0,-0.0139604 -0.00787262,-0.0185501 -0.0149484,-0.0185501 -0.00678894,0 -0.0115699,0.00385663 -0.0136735,0.00771325l-0.000254984 0 -0.000509967 -0.00672519 -0.00828697 0c0.000191238,0.00385663 0.000350602,0.00771325 0.000350602,0.0127173l0 0.0324785 0.00949814 0 0 -0.0272195c0,-0.00723516 0.00500405,-0.0110918 0.00968938,-0.0110918 0.00647021,0 0.0086057,0.0054184 0.0086057,0.0118249l0 0.0264864 0.00953001 0 0 -0.0276338zm0.0308211 0.0276338l0.00943439 0 0 -0.0246059c0.00156177,0.000318729 0.00337853,0.000414348 0.00535466,0.000414348 0.0113149,0 0.0234585,-0.00525904 0.0234585,-0.0204943 0,-0.005769 -0.00213549,-0.0105181 -0.00567338,-0.013546 -0.00376101,-0.00334666 -0.00959376,-0.00500405 -0.017307,-0.00500405 -0.00647021,0 -0.0114743,0.000573713 -0.0152671,0.00124304l0 0.0619929zm0.00943439 -0.0552039c0.00124304,-0.000223111 0.00344228,-0.000573713 0.00640646,-0.000573713 0.00761763,0 0.0128767,0.00385663 0.0128767,0.0114743 0,0.00806386 -0.00525904,0.0125579 -0.0139285,0.0125579 -0.00223111,0 -0.00395225,-6.37459e-005 -0.00535466,-0.000478094l0 -0.0229804zm0.0695468 0.046662c-0.00293231,0.00124304 -0.00637459,0.00213549 -0.0113786,0.00213549 -0.00713954,0 -0.0134504,-0.00385663 -0.0137054,-0.0140241l0.0287175 0c0.000159365,-0.00114743 0.000223111,-0.00245422 0.000223111,-0.00401599 0,-0.0111555 -0.0050678,-0.0217374 -0.0177851,-0.0217374 -0.0127811,0 -0.0203349,0.0107412 -0.0203349,0.0241916 0,0.013801 0.00787262,0.0229166 0.0214824,0.0229166 0.00615148,0 0.0111555,-0.00124304 0.0143428,-0.00274107l-0.00156177 -0.00672519zm-0.0249884 -0.0186775c0.000478094,-0.00525904 0.00344228,-0.0121436 0.0103906,-0.0121436 0.00729891,0 0.00953001,0.00672519 0.00943439,0.0121436l-0.019825 0zm0.0753795 -0.000414348c0,-0.0139604 -0.00787262,-0.0185501 -0.0149484,-0.0185501 -0.00678894,0 -0.0115699,0.00385663 -0.0137054,0.00771325l-0.000223111 0 -0.000509967 -0.00672519 -0.00828697 0c0.000191238,0.00385663 0.000350602,0.00771325 0.000350602,0.0127173l0 0.0324785 0.00949814 0 0 -0.0272195c0,-0.00723516 0.00500405,-0.0110918 0.00968938,-0.0110918 0.00647021,0 0.0086057,0.0054184 0.0086057,0.0118249l0 0.0264864 0.00953001 0 0 -0.0276338zm0.0412436 -0.017562l-0.000414348 0.00608773 -0.000159365 0c-0.0018805,-0.00363352 -0.00567338,-0.00707579 -0.0123986,-0.00707579 -0.00981687,0 -0.0190919,0.00854195 -0.0190919,0.0238728 0,0.0126536 0.00729891,0.0220561 0.0179445,0.0220561 0.00583275,0 0.0102631,-0.00277295 0.0125579,-0.00662957l0.000159365 0 0 0.00433472c0,0.0102631 -0.00522716,0.0143747 -0.0126217,0.0143747 -0.0050678,0 -0.00943439,-0.00156177 -0.0122073,-0.00318729l-0.00213549 0.00736265c0.00350602,0.00213549 0.00902004,0.00328291 0.0142472,0.00328291 0.0214186,0 0.0221517,-0.0166377 0.0221517,-0.0256896l0 -0.0257533c0,-0.00605586 0.000159365,-0.00981687 0.000414348,-0.013036l-0.00844633 0zm-0.00146616 0.0263271c0,0.00755389 -0.00494031,0.0113149 -0.00984874,0.0113149 -0.00704392,0 -0.0110599,-0.00631084 -0.0110599,-0.0151715 0,-0.0096575 0.0045897,-0.0159046 0.0111237,-0.0159046 0.00583275,0 0.009785,0.00490843 0.009785,0.0109005l0 0.00886068zm0.0532916 -0.00892443c0,-0.00959376 -0.00366539,-0.0183907 -0.0169564,-0.0183907 -0.00608773,0 -0.0114105,0.00172114 -0.0145978,0.00379288l0.00194425 0.00631084c0.00286857,-0.0018805 0.00698018,-0.00312355 0.0109962,-0.00312355 0.00911566,0 0.00911566,0.00672519 0.00911566,0.0101037 -0.0155221,0 -0.0252752,0.00557777 -0.0252752,0.016797 0,0.00698018 0.00484469,0.0132273 0.013291,0.0132273 0.00567338,0 0.0101037,-0.00264545 0.0126217,-0.00618335l0.000254984 0 0.000669332 0.00525904 0.0086057 0c-0.000573713,-0.00293231 -0.000669332,-0.00688456 -0.000669332,-0.0107412l0 -0.017052zm-0.00924316 0.0125261c0,0.00525904 -0.00427098,0.00921128 -0.00943439,0.00921128 -0.0035379,0 -0.00666145,-0.00223111 -0.00666145,-0.00723516 0,-0.00803198 0.0086057,-0.00943439 0.0160958,-0.00943439l0 0.00745827zm0.058965 -0.0505186l-0.00953001 0 0 0.0256896 -0.000159365 0c-0.00197612,-0.00344228 -0.00615148,-0.00608773 -0.0119842,-0.00608773 -0.0100719,0 -0.0188369,0.00870131 -0.0188369,0.0240322 0,0.0139604 0.007777,0.023076 0.0180401,0.023076 0.00637459,0 0.0113149,-0.00337853 0.0136735,-0.00796824l0.000254984 0 0.000509967 0.00704392 0.00835071 0c-0.000159365,-0.00312355 -0.000318729,-0.00796824 -0.000318729,-0.012048l0 -0.0537378zm-0.00953001 0.0472676c0,0.00631084 -0.00401599,0.0117292 -0.0101675,0.0117292 -0.00720329,0 -0.0111555,-0.00682081 -0.0111555,-0.0156815 0,-0.0089563 0.00401599,-0.0161596 0.0113149,-0.0161596 0.00535466,0 0.0100081,0.00433472 0.0100081,0.0117292l0 0.00838259zm0.0533234 -0.00927503c0,-0.00959376 -0.00369726,-0.0183907 -0.0169883,-0.0183907 -0.00605586,0 -0.0113786,0.00172114 -0.0145978,0.00379288l0.00197612 0.00631084c0.00286857,-0.0018805 0.00698018,-0.00312355 0.0109962,-0.00312355 0.00908379,0 0.00908379,0.00672519 0.00908379,0.0101037 -0.0154903,0 -0.0252434,0.00557777 -0.0252434,0.016797 0,0.00698018 0.00484469,0.0132273 0.013291,0.0132273 0.00564151,0 0.0100719,-0.00264545 0.0126217,-0.00618335l0.000254984 0 0.000637459 0.00525904 0.00863757 0c-0.000605586,-0.00293231 -0.000669332,-0.00688456 -0.000669332,-0.0107412l0 -0.017052zm-0.00927503 0.0125261c0,0.00525904 -0.00427098,0.00921128 -0.00943439,0.00921128 -0.00350602,0 -0.00662957,-0.00223111 -0.00662957,-0.00723516 0,-0.00803198 0.0086057,-0.00943439 0.016064,-0.00943439l0 0.00745827zm0.0529091 -0.0125261c0,-0.00959376 -0.00369726,-0.0183907 -0.0169883,-0.0183907 -0.00605586,0 -0.0113786,0.00172114 -0.0145978,0.00379288l0.00197612 0.00631084c0.00286857,-0.0018805 0.00698018,-0.00312355 0.0109962,-0.00312355 0.00908379,0 0.00908379,0.00672519 0.00908379,0.0101037 -0.0154903,0 -0.0252434,0.00557777 -0.0252434,0.016797 0,0.00698018 0.00484469,0.0132273 0.013291,0.0132273 0.00564151,0 0.0100719,-0.00264545 0.0126217,-0.00618335l0.000254984 0 0.000637459 0.00525904 0.00863757 0c-0.000605586,-0.00293231 -0.000669332,-0.00688456 -0.000669332,-0.0107412l0 -0.017052zm-0.00927503 0.0125261c0,0.00525904 -0.00427098,0.00921128 -0.00943439,0.00921128 -0.00350602,0 -0.00662957,-0.00223111 -0.00662957,-0.00723516 0,-0.00803198 0.0086057,-0.00943439 0.016064,-0.00943439l0 0.00745827zm0.0585506 -0.0123667c0,-0.0139604 -0.00787262,-0.0185501 -0.0149165,-0.0185501 -0.00678894,0 -0.0115699,0.00385663 -0.0137054,0.00771325l-0.000223111 0 -0.000509967 -0.00672519 -0.00828697 0c0.000159365,0.00385663 0.000350602,0.00771325 0.000350602,0.0127173l0 0.0324785 0.00949814 0 0 -0.0272195c0,-0.00723516 0.00500405,-0.0110918 0.00968938,-0.0110918 0.00647021,0 0.0086057,0.0054184 0.0086057,0.0118249l0 0.0264864 0.00949814 0 0 -0.0276338zm-0.918132 0.130328l0.00943439 0 0 -0.0246059c0.00156177,0.000318729 0.00337853,0.000414348 0.00535466,0.000414348 0.0113149,0 0.0234585,-0.00525904 0.0234585,-0.0204943 0,-0.005769 -0.00213549,-0.0105181 -0.00567338,-0.013546 -0.00376101,-0.00337853 -0.00959376,-0.00500405 -0.017307,-0.00500405 -0.00647021,0 -0.0114743,0.000573713 -0.0152671,0.00121117l0 0.0620248zm0.00943439 -0.0552039c0.00124304,-0.000254984 0.00344228,-0.000573713 0.00640646,-0.000573713 0.00761763,0 0.0128767,0.00385663 0.0128767,0.0114743 0,0.00806386 -0.00525904,0.0125579 -0.0139285,0.0125579 -0.00223111,0 -0.00395225,-9.56188e-005 -0.00535466,-0.000478094l0 -0.0229804zm0.0695468 0.046662c-0.00293231,0.00124304 -0.00637459,0.00213549 -0.0113786,0.00213549 -0.00713954,0 -0.0134504,-0.00385663 -0.0137054,-0.0140241l0.0287175 0c0.000159365,-0.00114743 0.000223111,-0.00245422 0.000223111,-0.00401599 0,-0.0111555 -0.0050678,-0.0217374 -0.0177851,-0.0217374 -0.0127811,0 -0.0203349,0.0107412 -0.0203349,0.0241916 0,0.013801 0.00787262,0.0229166 0.0214824,0.0229166 0.00615148,0 0.0111555,-0.00124304 0.0143428,-0.00274107l-0.00156177 -0.00672519zm-0.0249884 -0.0186775c0.000478094,-0.00525904 0.00344228,-0.0121436 0.0104225,-0.0121436 0.00729891,0 0.00949814,0.00672519 0.00940252,0.0121436l-0.019825 0zm0.100049 -9.56188e-005c0,-0.0142791 -0.00736265,-0.0188688 -0.0140878,-0.0188688 -0.00650208,0 -0.0109324,0.00328291 -0.0139604,0.00828697l-0.000159365 0c-0.0018805,-0.0050678 -0.0062471,-0.00828697 -0.0119842,-0.00828697 -0.00688456,0 -0.0109962,0.00385663 -0.0131954,0.00761763l-0.000254984 0 -0.000478094 -0.00662957 -0.00822322 0c0.000191238,0.00385663 0.000350602,0.00761763 0.000350602,0.0127173l0 0.0324785 0.00933877 0 0 -0.0273789c0,-0.00713954 0.00484469,-0.0109962 0.00911566,-0.0109962 0.00548215,0 0.00787262,0.00484469 0.00787262,0.0111555l0 0.0272195 0.00933877 0 0 -0.0278888c0,-0.00656583 0.00443034,-0.0104862 0.00879693,-0.0104862 0.00573713,0 0.00819135,0.00500405 0.00819135,0.0125261l0 0.025849 0.00933877 0 0 -0.0273151zm0.0433791 0.0187732c-0.00293231,0.00124304 -0.00637459,0.00213549 -0.0113786,0.00213549 -0.00713954,0 -0.0134504,-0.00385663 -0.0137054,-0.0140241l0.0287175 0c0.000159365,-0.00114743 0.000223111,-0.00245422 0.000223111,-0.00401599 0,-0.0111555 -0.0050678,-0.0217374 -0.0177851,-0.0217374 -0.0127811,0 -0.0203349,0.0107412 -0.0203349,0.0241916 0,0.013801 0.00787262,0.0229166 0.0214824,0.0229166 0.00615148,0 0.0111555,-0.00124304 0.0143428,-0.00274107l-0.00156177 -0.00672519zm-0.0249884 -0.0186775c0.000478094,-0.00525904 0.00344228,-0.0121436 0.0103906,-0.0121436 0.00729891,0 0.00953001,0.00672519 0.00943439,0.0121436l-0.019825 0zm0.0607498 -0.0187094c-0.000796824,-0.000159365 -0.00146616,-0.000254984 -0.0023586,-0.000254984 -0.00494031,0 -0.00968938,0.0035379 -0.0117292,0.00927503l-0.000318729 0 -0.000350602 -0.00828697 -0.00828697 0c0.000254984,0.00417536 0.000350602,0.00854195 0.000350602,0.0137691l0 0.0314267 0.00949814 0 0 -0.0239366c0,-0.00790449 0.00401599,-0.0131317 0.0104225,-0.0131317 0.00108368,0 0.00197612,6.37459e-005 0.00277295,0.000254984l0 -0.00911566zm0.0177214 -0.0117292c0,-0.00318729 -0.00219923,-0.00557777 -0.00548215,-0.00557777 -0.00328291,0 -0.00557777,0.00239047 -0.00557777,0.00557777 0,0.00302793 0.00219923,0.00548215 0.00548215,0.00548215 0.00344228,0 0.00557777,-0.00245422 0.00557777,-0.00548215zm-0.000796824 0.0124623l-0.00953001 0 0 0.0451958 0.00953001 0 0 -0.0451958zm0.0495306 0.017562c0,-0.0139604 -0.00787262,-0.0185501 -0.0149165,-0.0185501 -0.00682081,0 -0.0115699,0.00385663 -0.0137054,0.00771325l-0.000254984 0 -0.000509967 -0.00672519 -0.00825509 0c0.000159365,0.00385663 0.000318729,0.00771325 0.000318729,0.0127173l0 0.0324785 0.00953001 0 0 -0.0272195c0,-0.00723516 0.00497218,-0.0110918 0.0096575,-0.0110918 0.00647021,0 0.0086057,0.0054184 0.0086057,0.0118249l0 0.0264864 0.00953001 0 0 -0.0276338zm0.0138647 -0.017562l-0.00640646 0 0 0.00713954 0.00640646 0 0 0.0233629c0,0.00592837 0.00105181,0.00968938 0.00334666,0.0121436 0.00197612,0.00223111 0.00516342,0.00347415 0.0089563,0.00347415 0.00318729,0 0.00573713,-0.000414348 0.00736265,-0.00108368l-0.000318729 -0.00729891c-0.00114743,0.000318729 -0.00229485,0.000573713 -0.00417536,0.000573713 -0.00401599,0 -0.00573713,-0.0027092 -0.00573713,-0.00828697l0 -0.0228848 0.0107412 0 0 -0.00713954 -0.0107412 0 0 -0.0111555 -0.00943439 0.00296418 0 0.00819135zm0.0600168 0.0174026c0,-0.00959376 -0.00366539,-0.0183907 -0.0169564,-0.0183907 -0.00608773,0 -0.0114105,0.00172114 -0.0145978,0.00379288l0.00197612 0.00631084c0.00286857,-0.0018805 0.0069483,-0.00312355 0.0109643,-0.00312355 0.00911566,0 0.00911566,0.00672519 0.00911566,0.0100719 -0.0155221,0 -0.0252752,0.00557777 -0.0252752,0.0168289 0,0.00698018 0.00484469,0.0132273 0.013291,0.0132273 0.00567338,0 0.0101037,-0.00264545 0.0126217,-0.00618335l0.000254984 0 0.000669332 0.00525904 0.0086057 0c-0.000573713,-0.00296418 -0.000669332,-0.00688456 -0.000669332,-0.0107412l0 -0.017052zm-0.00924316 0.0125261c0,0.00525904 -0.00427098,0.00917941 -0.00943439,0.00917941 -0.0035379,0 -0.00666145,-0.00219923 -0.00666145,-0.00720329 0,-0.00803198 0.00863757,-0.00943439 0.0160958,-0.00943439l0 0.00745827zm0.0585506 -0.012048c0,-0.0142791 -0.00787262,-0.0188688 -0.0146934,-0.0188688 -0.00490843,0 -0.0100081,0.00245422 -0.0129404,0.00713954l-0.000159365 0 0 -0.0267414 -0.00953001 0 0 0.0657858 0.00953001 0 0 -0.0276338c0,-0.00682081 0.00500405,-0.0106774 0.0096575,-0.0106774 0.00640646,0 0.00863757,0.0054184 0.00863757,0.0118886l0 0.0264227 0.00949814 0 0 -0.0273151zm0.030853 0.0273151l0.00940252 0 0 -0.0246059c0.00156177,0.000318729 0.00337853,0.000414348 0.00535466,0.000414348 0.0113149,0 0.0234585,-0.00525904 0.0234585,-0.0204943 0,-0.005769 -0.00213549,-0.0105181 -0.00567338,-0.013546 -0.00376101,-0.00337853 -0.00959376,-0.00500405 -0.017307,-0.00500405 -0.00647021,0 -0.0114743,0.000573713 -0.0152353,0.00121117l0 0.0620248zm0.00940252 -0.0552039c0.00124304,-0.000254984 0.00347415,-0.000573713 0.00640646,-0.000573713 0.00764951,0 0.0128767,0.00385663 0.0128767,0.0114743 0,0.00806386 -0.00522716,0.0125579 -0.0139285,0.0125579 -0.00223111,0 -0.00395225,-9.56188e-005 -0.00535466,-0.000478094l0 -0.0229804zm0.0607817 0.00927503c-0.000796824,-0.000159365 -0.00146616,-0.000254984 -0.0023586,-0.000254984 -0.00494031,0 -0.00968938,0.0035379 -0.0117292,0.00927503l-0.000350602 0 -0.000318729 -0.00828697 -0.00828697 0c0.000254984,0.00417536 0.000350602,0.00854195 0.000350602,0.0137691l0 0.0314267 0.00949814 0 0 -0.0239366c0,-0.00790449 0.00401599,-0.0131317 0.0104225,-0.0131317 0.00105181,0 0.00197612,6.37459e-005 0.00277295,0.000254984l0 -0.00911566zm0.025849 -0.000254984c-0.0119842,0 -0.021323,0.0086057 -0.021323,0.0238728 0,0.0145978 0.00892443,0.0232354 0.0206537,0.0232354 0.0101675,0 0.0211636,-0.00701205 0.0211636,-0.0239047 0,-0.0138329 -0.0081276,-0.0232035 -0.0204943,-0.0232035zm0.0107412 0.0234585c0,0.00902004 -0.00427098,0.0164783 -0.0111555,0.0164783 -0.00698018,0 -0.0111555,-0.00745827 -0.0111555,-0.0163189 0,-0.007777 0.00312355,-0.0164783 0.0112512,-0.0164783 0.00793636,0 0.0110599,0.00886068 0.0110599,0.0163189zm0.0454508 -0.0224704l-0.00729891 0.0241278c-0.00114743,0.00392037 -0.00223111,0.00761763 -0.00302793,0.0113786l-0.000254984 0c-0.000828697,-0.00376101 -0.00181676,-0.00752202 -0.00302793,-0.0114743l-0.00739452 -0.0240322 -0.0102631 0 0.0158409 0.0451958 0.00911566 0 0.0162233 -0.0451958 -0.00991249 0zm0.0273151 -0.0124623c0,-0.00318729 -0.00223111,-0.00557777 -0.00551402,-0.00557777 -0.00328291,0 -0.00557777,0.00239047 -0.00557777,0.00557777 0,0.00302793 0.00223111,0.00548215 0.00551402,0.00548215 0.00344228,0 0.00557777,-0.00245422 0.00557777,-0.00548215zm-0.000828697 0.0124623l-0.00949814 0 0 0.0451958 0.00949814 0 0 -0.0451958zm0.0495306 0.017562c0,-0.0139604 -0.00787262,-0.0185501 -0.0149165,-0.0185501 -0.00682081,0 -0.0115699,0.00385663 -0.0137054,0.00771325l-0.000254984 0 -0.000478094 -0.00672519 -0.00828697 0c0.000159365,0.00385663 0.000318729,0.00771325 0.000318729,0.0127173l0 0.0324785 0.00953001 0 0 -0.0272195c0,-0.00723516 0.00500405,-0.0110918 0.0096575,-0.0110918 0.00650208,0 0.00863757,0.0054184 0.00863757,0.0118249l0 0.0264864 0.00949814 0 0 -0.0276338zm0.0365901 -0.0159046c-0.00245422,-0.00140241 -0.00631084,-0.00264545 -0.0107412,-0.00264545 -0.00953001,0 -0.0156815,0.00599211 -0.0156815,0.013546 0,0.00525904 0.0035379,0.00975312 0.0115699,0.0129404 0.0054184,0.00232673 0.00729891,0.00420723 0.00729891,0.00764951 0,0.00344228 -0.00245422,0.0058965 -0.00752202,0.0058965 -0.00385663,0 -0.00806386,-0.00162552 -0.0103587,-0.00302793l-0.00213549 0.00704392c0.0030598,0.00181676 0.00755389,0.0030598 0.012303,0.0030598 0.0102631,0 0.0169245,-0.00519529 0.0169245,-0.0138966 0,-0.00656583 -0.00395225,-0.0106456 -0.0114105,-0.0136735 -0.00551402,-0.00239047 -0.00755389,-0.00395225 -0.00755389,-0.00707579 0,-0.00302793 0.00229485,-0.00548215 0.00656583,-0.00548215 0.00369726,0 0.00682081,0.00140241 0.0086057,0.00254984l0.00213549 -0.00688456zm0.0212593 -0.0141197c0,-0.00318729 -0.00223111,-0.00557777 -0.00551402,-0.00557777 -0.00328291,0 -0.00557777,0.00239047 -0.00557777,0.00557777 0,0.00302793 0.00223111,0.00548215 0.00551402,0.00548215 0.00344228,0 0.00557777,-0.00245422 0.00557777,-0.00548215zm-0.000828697 0.0124623l-0.00953001 0 0 0.0451958 0.00953001 0 0 -0.0451958zm0.0310761 0.0451958l0.00943439 0 0 -0.0246059c0.00156177,0.000318729 0.00337853,0.000414348 0.00532278,0.000414348 0.0113468,0 0.0234585,-0.00525904 0.0234585,-0.0204943 0,-0.005769 -0.00213549,-0.0105181 -0.00564151,-0.013546 -0.00379288,-0.00337853 -0.00959376,-0.00500405 -0.017307,-0.00500405 -0.00650208,0 -0.0115061,0.000573713 -0.0152671,0.00121117l0 0.0620248zm0.00943439 -0.0552039c0.00124304,-0.000254984 0.00344228,-0.000573713 0.00640646,-0.000573713 0.00761763,0 0.0128767,0.00385663 0.0128767,0.0114743 0,0.00806386 -0.00525904,0.0125579 -0.0139604,0.0125579 -0.00219923,0 -0.00392037,-9.56188e-005 -0.00532278,-0.000478094l0 -0.0229804zm0.0697061 0.0274107c0,-0.00959376 -0.00366539,-0.0183907 -0.0169564,-0.0183907 -0.00608773,0 -0.0114105,0.00172114 -0.0145978,0.00379288l0.00194425 0.00631084c0.00290044,-0.0018805 0.00698018,-0.00312355 0.0109962,-0.00312355 0.00911566,0 0.00911566,0.00672519 0.00911566,0.0100719 -0.0155221,0 -0.0252752,0.00557777 -0.0252752,0.0168289 0,0.00698018 0.00484469,0.0132273 0.013291,0.0132273 0.00567338,0 0.0101037,-0.00264545 0.0126217,-0.00618335l0.000254984 0 0.000669332 0.00525904 0.0086057 0c-0.000573713,-0.00296418 -0.000669332,-0.00688456 -0.000669332,-0.0107412l0 -0.017052zm-0.00924316 0.0125261c0,0.00525904 -0.00427098,0.00917941 -0.00943439,0.00917941 -0.0035379,0 -0.00666145,-0.00219923 -0.00666145,-0.00720329 0,-0.00803198 0.0086057,-0.00943439 0.0160958,-0.00943439l0 0.00745827zm0.0297693 -0.0230441l-0.000509967 -0.00688456 -0.00835071 0c0.000159365,0.00401599 0.000318729,0.00870131 0.000318729,0.0145978l0 0.0488931 0.00953001 0 0 -0.0236179 0.000159365 0c0.00219923,0.00369726 0.00662957,0.0062471 0.012048,0.0062471 0.00953001,0 0.0191238,-0.00749014 0.0191238,-0.0240641 0,-0.0140241 -0.00764951,-0.0230441 -0.017817,-0.0230441 -0.00631084,0 -0.0112193,0.00280482 -0.0143428,0.00787262l-0.000159365 0zm0.000988061 0.0117292c0,-0.00662957 0.00481282,-0.0119842 0.0104862,-0.0119842 0.00729891,0 0.0111555,0.00713954 0.0111555,0.0157771 0,0.00933877 -0.00401599,0.0161596 -0.0114105,0.0161596 -0.00465345,0 -0.0102312,-0.00347415 -0.0102312,-0.0115699l0 -0.00838259zm0.0774194 -0.0186138l-0.00953001 0 0 0.0279844c0,0.00678894 -0.0050678,0.0102312 -0.00943439,0.0102312 -0.00621522,0 -0.00844633,-0.00516342 -0.00844633,-0.0129404l0 -0.0252752 -0.00949814 0 0 0.026837c0,0.0144066 0.00678894,0.0192831 0.0145978,0.0192831 0.00729891,0 0.0117292,-0.00436659 0.0136097,-0.00749014l0.000254984 0 0.000478094 0.00656583 0.00838259 0c-0.000159365,-0.00360164 -0.000414348,-0.00787262 -0.000414348,-0.0129404l0 -0.0322554zm0.0438891 0.0174026c0,-0.00959376 -0.00369726,-0.0183907 -0.0169883,-0.0183907 -0.00608773,0 -0.0114105,0.00172114 -0.0145978,0.00379288l0.00197612 0.00631084c0.00286857,-0.0018805 0.0069483,-0.00312355 0.0109962,-0.00312355 0.00908379,0 0.00908379,0.00672519 0.00908379,0.0100719 -0.0154903,0 -0.0252434,0.00557777 -0.0252434,0.0168289 0,0.00698018 0.00481282,0.0132273 0.0132591,0.0132273 0.00567338,0 0.0101037,-0.00264545 0.0126536,-0.00618335l0.000223111 0 0.000669332 0.00525904 0.0086057 0c-0.000573713,-0.00296418 -0.000637459,-0.00688456 -0.000637459,-0.0107412l0 -0.017052zm-0.00927503 0.0125261c0,0.00525904 -0.00427098,0.00917941 -0.00943439,0.00917941 -0.0035379,0 -0.00666145,-0.00219923 -0.00666145,-0.00720329 0,-0.00803198 0.00863757,-0.00943439 0.0160958,-0.00943439l0 0.00745827z"/>
  <path class="fil3" d="M0.544709 0.249916l-0.00516342 0 0 0.022566c0,0.00605586 -0.00207174,0.00755389 -0.00551402,0.00755389 -0.00137054,0 -0.00251796,-0.000223111 -0.00337853,-0.000509967l-0.000605586 0.0042391c0.00105181,0.000414348 0.00286857,0.000701205 0.00443034,0.000701205 0.00596024,0 0.0102312,-0.00280482 0.0102312,-0.011793l0 -0.0227573zm0.0123348 -0.00159365l-0.00513154 0 0 0.035634 0.00513154 0 0 -0.035634zm0.00988061 0.0361439c0.00203987,0 0.00334666,-0.00149803 0.00334666,-0.0035379 0,-0.00207174 -0.00133866,-0.0035379 -0.00331479,-0.0035379 -0.00191238,0 -0.00331479,0.00149803 -0.00331479,0.0035379 0,0.00197612 0.00124304,0.0035379 0.00328291,0.0035379zm0.0363989 -0.0334666c-0.00146616,-0.000764951 -0.00392037,-0.00156177 -0.00717141,-0.00156177 -0.00675707,0 -0.0110599,0.00404786 -0.0110599,0.00940252 0,0.00462158 0.00341041,0.00771325 0.0084782,0.00975312 0.00404786,0.00168927 0.00580088,0.00344228 0.00580088,0.00634272 0,0.0030598 -0.00229485,0.00516342 -0.00631084,0.00516342 -0.00280482,0 -0.00557777,-0.000892443 -0.00739452,-0.002008l-0.00114743 0.00430285c0.00165739,0.00111555 0.00503593,0.00207174 0.00822322,0.00207174 0.00764951,0 0.0118567,-0.00427098 0.0118567,-0.00997623 0,-0.00465345 -0.00261358,-0.00764951 -0.00809573,-0.01004 -0.00430285,-0.0018805 -0.00621522,-0.00328291 -0.00621522,-0.00618335 0,-0.00216736 0.00168927,-0.00452596 0.00573713,-0.00452596 0.00280482,0 0.00494031,0.000892443 0.00605586,0.00149803l0.00124304 -0.0042391zm0.0172433 0.00793636c-0.00650208,0 -0.0115699,0.00468532 -0.0115699,0.0129404 0,0.00790449 0.00484469,0.0125898 0.0112193,0.0125898 0.00548215,0 0.0114424,-0.00379288 0.0114424,-0.0129404 0,-0.00752202 -0.00439847,-0.0125898 -0.0110918,-0.0125898zm0.00580088 0.0127173c0,0.00487656 -0.00229485,0.00892443 -0.00602399,0.00892443 -0.00379288,0 -0.00605586,-0.00404786 -0.00605586,-0.00882881 0,-0.0042391 0.00168927,-0.0089563 0.00608773,-0.0089563 0.00430285,0 0.00599211,0.00481282 0.00599211,0.00886068zm0.0282713 -0.00277295c0,-0.00519529 -0.002008,-0.00994436 -0.00921128,-0.00994436 -0.00328291,0 -0.00615148,0.000956188 -0.00790449,0.00203987l0.00108368 0.00344228c0.00156177,-0.00101993 0.00376101,-0.00168927 0.00596024,-0.00168927 0.00490843,0 0.00490843,0.00363352 0.00490843,0.00545027 -0.00838259,0 -0.0136735,0.00302793 -0.0136735,0.00911566 0,0.00376101 0.00261358,0.00717141 0.00720329,0.00717141 0.0030598,0 0.00545027,-0.00143428 0.00682081,-0.00334666l0.000159365 0 0.000350602 0.00283669 0.00465345 0c-0.000318729,-0.00159365 -0.000350602,-0.00372913 -0.000350602,-0.00583275l0 -0.00924316zm-0.00503593 0.00682081c0,0.00283669 -0.00229485,0.00497218 -0.00509967,0.00497218 -0.00191238,0 -0.00360164,-0.00121117 -0.00360164,-0.00392037 0,-0.00433472 0.00468532,-0.00509967 0.00870131,-0.00509967l0 0.00404786zm0.0396181 -0.0247015c-0.00146616,-0.000764951 -0.00392037,-0.00156177 -0.00717141,-0.00156177 -0.00675707,0 -0.0110599,0.00404786 -0.0110599,0.00940252 0,0.00462158 0.00341041,0.00771325 0.0084782,0.00975312 0.00404786,0.00168927 0.00580088,0.00344228 0.00580088,0.00634272 0,0.0030598 -0.00229485,0.00516342 -0.00631084,0.00516342 -0.00280482,0 -0.00557777,-0.000892443 -0.00739452,-0.002008l-0.00114743 0.00430285c0.00165739,0.00111555 0.00503593,0.00207174 0.00822322,0.00207174 0.00764951,0 0.0118567,-0.00427098 0.0118567,-0.00997623 0,-0.00465345 -0.00261358,-0.00764951 -0.00809573,-0.01004 -0.00430285,-0.0018805 -0.00621522,-0.00328291 -0.00621522,-0.00618335 0,-0.00216736 0.00168927,-0.00452596 0.00573713,-0.00452596 0.00280482,0 0.00494031,0.000892443 0.00605586,0.00149803l0.00124304 -0.0042391zm0.0128448 0.00172114c0,-0.00172114 -0.00121117,-0.00302793 -0.00299606,-0.00302793 -0.00178489,0 -0.00302793,0.00130679 -0.00302793,0.00302793 0,0.00165739 0.00121117,0.00296418 0.00299606,0.00296418 0.00184863,0 0.00302793,-0.00130679 0.00302793,-0.00296418zm-0.000446221 0.00675707l-0.00516342 0 0 0.0244784 0.00516342 0 0 -0.0244784zm0.0272195 0l-0.00513154 0 0 0.0151397c0,0.00369726 -0.00277295,0.00557777 -0.00513154,0.00557777 -0.00337853,0 -0.00455783,-0.00280482 -0.00455783,-0.00704392l0 -0.0136735 -0.00516342 0 0 0.0145341c0,0.00780887 0.00369726,0.0104543 0.00790449,0.0104543 0.00395225,0 0.00634272,-0.00239047 0.00739452,-0.00404786l0.000127492 0 0.000254984 0.0035379 0.00452596 0c-9.56188e-005,-0.00194425 -0.000223111,-0.00427098 -0.000223111,-0.00701205l0 -0.0174664zm0.017562 0.0243828c0.00191238,0.000286857 0.00436659,0.000414348 0.00736265,0.000414348 0.00602399,0 0.0108687,-0.0015299 0.0139285,-0.00449409 0.00296418,-0.00290044 0.00487656,-0.00736265 0.00487656,-0.013546l0 -6.37459e-005c0,-0.00752202 -0.00302793,-0.0164783 -0.0174982,-0.0164783 -0.00321917,0 -0.00621522,0.000318729 -0.00866944,0.000733078l0 0.0334347zm0.00516342 -0.0297056c0.000892443,-0.000191238 0.00219923,-0.000350602 0.00398412,-0.000350602 0.00733078,0 0.0116018,0.0042391 0.0116018,0.0125261 0,0.00937065 -0.00462158,0.0138647 -0.0122711,0.013801 -0.0011793,0 -0.00242234,-3.18729e-005 -0.00331479,-0.000159365l0 -0.0258171zm0.0367495 0.00478094c-0.00650208,0 -0.0115699,0.00468532 -0.0115699,0.0129404 0,0.00790449 0.00484469,0.0125898 0.0112193,0.0125898 0.00548215,0 0.0114424,-0.00379288 0.0114424,-0.0129404 0,-0.00752202 -0.00439847,-0.0125898 -0.0110918,-0.0125898zm0.00580088 0.0127173c0,0.00487656 -0.00229485,0.00892443 -0.00602399,0.00892443 -0.00379288,0 -0.00605586,-0.00404786 -0.00605586,-0.00882881 0,-0.0042391 0.00168927,-0.0089563 0.00608773,-0.0089563 0.00430285,0 0.00599211,0.00481282 0.00599211,0.00886068zm0.0217692 -0.00210361l0.00863757 -0.0100719 -0.00608773 0 -0.00608773 0.00815947c-0.000605586,0.00086057 -0.00127492,0.00191238 -0.0018805,0.00286857l-6.37459e-005 0 0 -0.0221836 -0.00516342 0 0 0.035634 0.00516342 0 0 -0.00879693 0.00197612 -0.00245422 0.00704392 0.0112512 0.00621522 0 -0.00975312 -0.0144066zm0.0235541 0.0144066l0.00516342 0 0 -0.0340403 -0.00516342 0 0 0.0340403zm0.0129404 0l0.00516342 0 0 -0.0340403 -0.00516342 0 0 0.0340403zm0.0341041 -0.0340403l-0.00516342 0 0 0.022566c0,0.00605586 -0.00210361,0.00755389 -0.00551402,0.00755389 -0.00137054,0 -0.00254984,-0.000223111 -0.00337853,-0.000509967l-0.000605586 0.0042391c0.00105181,0.000414348 0.00286857,0.000701205 0.00443034,0.000701205 0.00596024,0 0.0102312,-0.00280482 0.0102312,-0.011793l0 -0.0227573zm0.0243191 0.0189644c0,-0.00519529 -0.00197612,-0.00994436 -0.00917941,-0.00994436 -0.00328291,0 -0.00618335,0.000956188 -0.00790449,0.00203987l0.00105181 0.00344228c0.00156177,-0.00101993 0.00379288,-0.00168927 0.00596024,-0.00168927 0.00494031,0 0.00494031,0.00363352 0.00494031,0.00545027 -0.00841446,0 -0.0137054,0.00302793 -0.0137054,0.00911566 0,0.00376101 0.00264545,0.00717141 0.00720329,0.00717141 0.0030598,0 0.00548215,-0.00143428 0.00685268,-0.00334666l0.000127492 0 0.000350602 0.00283669 0.00468532 0c-0.000318729,-0.00159365 -0.000382475,-0.00372913 -0.000382475,-0.00583275l0 -0.00924316zm-0.00500405 0.00682081c0,0.00283669 -0.00232673,0.00497218 -0.00509967,0.00497218 -0.00191238,0 -0.00360164,-0.00121117 -0.00360164,-0.00392037 0,-0.00433472 0.00465345,-0.00509967 0.00870131,-0.00509967l0 0.00404786zm0.0261677 -0.0162233l-0.00395225 0.0137691c-0.000446221,0.00165739 -0.000924316,0.00347415 -0.00127492,0.00487656l-0.000159365 0c-0.000350602,-0.00140241 -0.000828697,-0.00328291 -0.00130679,-0.00487656l-0.00446221 -0.0137691 -0.00564151 0 0.00841446 0.022566c0.000223111,0.000478094 0.000254984,0.000796824 0.000254984,0.00105181 0,0.000669332 -0.00191238,0.00567338 -0.00723516,0.00758576l0.00133866 0.00433472c0.0011793,-0.000254984 0.00344228,-0.00111555 0.00567338,-0.00315542 0.00293231,-0.00283669 0.00497218,-0.00736265 0.00787262,-0.0154265l0.0058965 -0.0169564 -0.0054184 0zm0.0269326 0.00940252c0,-0.00519529 -0.002008,-0.00994436 -0.00921128,-0.00994436 -0.00328291,0 -0.00615148,0.000956188 -0.00790449,0.00203987l0.00108368 0.00344228c0.00156177,-0.00101993 0.00376101,-0.00168927 0.00596024,-0.00168927 0.00490843,0 0.00490843,0.00363352 0.00490843,0.00545027 -0.00838259,0 -0.0136735,0.00302793 -0.0136735,0.00911566 0,0.00376101 0.00261358,0.00717141 0.00720329,0.00717141 0.0030598,0 0.00545027,-0.00143428 0.00682081,-0.00334666l0.000159365 0 0.000350602 0.00283669 0.00465345 0c-0.000318729,-0.00159365 -0.000350602,-0.00372913 -0.000350602,-0.00583275l0 -0.00924316zm-0.00503593 0.00682081c0,0.00283669 -0.00229485,0.00497218 -0.00509967,0.00497218 -0.00191238,0 -0.00360164,-0.00121117 -0.00360164,-0.00392037 0,-0.00433472 0.00468532,-0.00509967 0.00870131,-0.00509967l0 0.00404786zm0.0168608 -0.0124942l-0.000254984 -0.00372913 -0.00455783 0c9.56188e-005,0.00216736 0.000191238,0.0047172 0.000191238,0.00790449l0 0.0264864 0.00516342 0 0 -0.0128129 9.56188e-005 0c0.0011793,0.002008 0.00356977,0.00341041 0.00650208,0.00341041 0.00516342,0 0.0103587,-0.00404786 0.0103587,-0.013036 0,-0.00758576 -0.00411161,-0.0124942 -0.00962563,-0.0124942 -0.00344228,0 -0.00608773,0.0015299 -0.007777,0.00427098l-9.56188e-005 0zm0.00054184 0.00634272c0,-0.00356977 0.00261358,-0.00647021 0.00567338,-0.00647021 0.00395225,0 0.00605586,0.00385663 0.00605586,0.00854195 0,0.00503593 -0.00219923,0.00873319 -0.00618335,0.00873319 -0.00254984,0 -0.00554589,-0.00184863 -0.00554589,-0.0062471l0 -0.00455783zm0.042646 -0.0100719l-0.00516342 0 0 0.0151397c0,0.00369726 -0.00274107,0.00557777 -0.00509967,0.00557777 -0.00337853,0 -0.0045897,-0.00280482 -0.0045897,-0.00704392l0 -0.0136735 -0.00513154 0 0 0.0145341c0,0.00780887 0.00366539,0.0104543 0.00790449,0.0104543 0.00395225,0 0.00634272,-0.00239047 0.00736265,-0.00404786l0.000127492 0 0.000286857 0.0035379 0.00452596 0c-9.56188e-005,-0.00194425 -0.000223111,-0.00427098 -0.000223111,-0.00701205l0 -0.0174664zm0.0196337 -0.000414348c-0.000446221,-6.37459e-005 -0.000796824,-0.000127492 -0.00127492,-0.000127492 -0.00267733,0 -0.00525904,0.00191238 -0.00637459,0.00503593l-0.000159365 0 -0.000191238 -0.00449409 -0.00449409 0c0.000159365,0.00226298 0.000191238,0.00462158 0.000191238,0.00745827l0 0.0170202 0.00516342 0 0 -0.0129723c0,-0.00427098 0.00216736,-0.00710767 0.00564151,-0.00710767 0.000573713,0 0.00105181,3.18729e-005 0.00149803,0.000127492l0 -0.00494031zm0.0218648 0.00981687c0,-0.00519529 -0.002008,-0.00994436 -0.00917941,-0.00994436 -0.00331479,0 -0.00618335,0.000956188 -0.00790449,0.00203987l0.00105181 0.00344228c0.00156177,-0.00101993 0.00376101,-0.00168927 0.00596024,-0.00168927 0.00490843,0 0.00490843,0.00363352 0.00490843,0.00545027 -0.00838259,0 -0.0136735,0.00302793 -0.0136735,0.00911566 0,0.00376101 0.00261358,0.00717141 0.00720329,0.00717141 0.0030598,0 0.00545027,-0.00143428 0.00685268,-0.00334666l0.000127492 0 0.000350602 0.00283669 0.00465345 0c-0.000286857,-0.00159365 -0.000350602,-0.00372913 -0.000350602,-0.00583275l0 -0.00924316zm-0.00500405 0.00682081c0,0.00283669 -0.00232673,0.00497218 -0.00513154,0.00497218 -0.00191238,0 -0.00360164,-0.00121117 -0.00360164,-0.00392037 0,-0.00433472 0.00468532,-0.00509967 0.00873319,-0.00509967l0 0.00404786z"/>
 </g>
</svg>
